# xmcd
#
# Track frame offsets:
#	150
#	23257
#	42427
#	60372
#	77945
#	98907
#	117825
#	137532
#	158657
#	174312
#	192370
#	210200
#
# Disc length: 3364 seconds
#
# Revision: 1
# Processed by: cddbd v1.5.2PL0 Copyright (c) Steve Scherf et al.
# Submitted via: audiograbber 1.83.01
#
DISCID=8a0d220c
DTITLE=Joe Cocker - The Best Of Joe Cocker [Capitol]
DYEAR=1993
DGENRE=Blues-Rock
TTITLE0=Joe Cocker - Unchain My Heart (90's Version)
TTITLE1=Joe Cocker - You Can Leave Your Hat On
TTITLE2=Joe Cocker - When The Night Comes
TTITLE3=Joe Cocker - Up Where We Belong
TTITLE4=Joe Cocker - Now That The Magic Has Gone
TTITLE5=Joe Cocker - Don't You Love Me Anymore
TTITLE6=Joe Cocker - Shelter Me
TTITLE7=Joe Cocker - Feels Like Forever
TTITLE8=Joe Cocker - Night Calls
TTITLE9=Joe Cocker - Sorry Seems To Be The Hardest Word
TTITLE10=Joe Cocker - Civilized Man
TTITLE11=Joe Cocker - With A Little Help From My Friends
EXTD=
EXTT0=
EXTT1=
EXTT2=
EXTT3=
EXTT4=
EXTT5=
EXTT6=
EXTT7=
EXTT8=
EXTT9=
EXTT10=
EXTT11=
PLAYORDER=
